<svg width="78" height="16" viewBox="0 0 78 16" fill="none" xmlns="http://www.w3.org/2000/svg">
  <path
    d="M0.0113636 12V0.363636H2.47159V5.16477H7.46591V0.363636H9.92045V12H7.46591V7.19318H2.47159V12H0.0113636ZM15.8807 12.1705C14.983 12.1705 14.2102 11.9886 13.5625 11.625C12.9186 11.2576 12.4223 10.7386 12.0739 10.0682C11.7254 9.39394 11.5511 8.59659 11.5511 7.67614C11.5511 6.77841 11.7254 5.99053 12.0739 5.3125C12.4223 4.63447 12.9129 4.10606 13.5455 3.72727C14.1818 3.34848 14.928 3.15909 15.7841 3.15909C16.3598 3.15909 16.8958 3.25189 17.392 3.4375C17.892 3.61932 18.3277 3.89394 18.6989 4.26136C19.0739 4.62879 19.3655 5.09091 19.5739 5.64773C19.7822 6.20076 19.8864 6.84848 19.8864 7.59091V8.25568H12.517V6.75568H17.608C17.608 6.4072 17.5322 6.09848 17.3807 5.82955C17.2292 5.56061 17.0189 5.35038 16.75 5.19886C16.4848 5.04356 16.1761 4.96591 15.8239 4.96591C15.4564 4.96591 15.1307 5.05114 14.8466 5.22159C14.5663 5.38826 14.3466 5.61364 14.1875 5.89773C14.0284 6.17803 13.947 6.49053 13.9432 6.83523V8.26136C13.9432 8.69318 14.0227 9.06629 14.1818 9.38068C14.3447 9.69508 14.5739 9.9375 14.8693 10.108C15.1648 10.2784 15.5152 10.3636 15.9205 10.3636C16.1894 10.3636 16.4356 10.3258 16.6591 10.25C16.8826 10.1742 17.0739 10.0606 17.233 9.90909C17.392 9.75758 17.5133 9.57197 17.5966 9.35227L19.8352 9.5C19.7216 10.0379 19.4886 10.5076 19.1364 10.9091C18.7879 11.3068 18.3371 11.6174 17.7841 11.8409C17.2348 12.0606 16.6004 12.1705 15.8807 12.1705ZM23.8864 0.363636V12H21.4659V0.363636H23.8864ZM28.2457 0.363636V12H25.8253V0.363636H28.2457ZM34.1278 12.1705C33.2453 12.1705 32.482 11.983 31.8381 11.608C31.1979 11.2292 30.7036 10.7027 30.3551 10.0284C30.0066 9.35038 29.8324 8.56439 29.8324 7.67045C29.8324 6.76894 30.0066 5.98106 30.3551 5.30682C30.7036 4.62879 31.1979 4.10227 31.8381 3.72727C32.482 3.34848 33.2453 3.15909 34.1278 3.15909C35.0104 3.15909 35.7718 3.34848 36.4119 3.72727C37.0559 4.10227 37.5521 4.62879 37.9006 5.30682C38.2491 5.98106 38.4233 6.76894 38.4233 7.67045C38.4233 8.56439 38.2491 9.35038 37.9006 10.0284C37.5521 10.7027 37.0559 11.2292 36.4119 11.608C35.7718 11.983 35.0104 12.1705 34.1278 12.1705ZM34.1392 10.2955C34.5407 10.2955 34.8759 10.1818 35.1449 9.95455C35.4138 9.72348 35.6165 9.40909 35.7528 9.01136C35.893 8.61364 35.9631 8.16098 35.9631 7.65341C35.9631 7.14583 35.893 6.69318 35.7528 6.29545C35.6165 5.89773 35.4138 5.58333 35.1449 5.35227C34.8759 5.12121 34.5407 5.00568 34.1392 5.00568C33.7339 5.00568 33.393 5.12121 33.1165 5.35227C32.8438 5.58333 32.6373 5.89773 32.4972 6.29545C32.3608 6.69318 32.2926 7.14583 32.2926 7.65341C32.2926 8.16098 32.3608 8.61364 32.4972 9.01136C32.6373 9.40909 32.8438 9.72348 33.1165 9.95455C33.393 10.1818 33.7339 10.2955 34.1392 10.2955ZM43.7457 12V0.363636H48.4048C49.2609 0.363636 49.9749 0.49053 50.5469 0.744318C51.1188 0.998106 51.5488 1.35038 51.8366 1.80114C52.1245 2.24811 52.2685 2.76326 52.2685 3.34659C52.2685 3.80114 52.1776 4.20076 51.9957 4.54545C51.8139 4.88636 51.5639 5.16667 51.2457 5.38636C50.9313 5.60227 50.5715 5.75568 50.1662 5.84659V5.96023C50.6094 5.97917 51.0241 6.10417 51.4105 6.33523C51.8007 6.56629 52.117 6.89015 52.3594 7.30682C52.6018 7.7197 52.723 8.21212 52.723 8.78409C52.723 9.40152 52.5696 9.95265 52.2628 10.4375C51.9598 10.9186 51.5109 11.2992 50.9162 11.5795C50.3215 11.8598 49.5885 12 48.7173 12H43.7457ZM46.206 9.98864H48.2116C48.8973 9.98864 49.3973 9.85795 49.7116 9.59659C50.026 9.33144 50.1832 8.97917 50.1832 8.53977C50.1832 8.2178 50.1056 7.93371 49.9503 7.6875C49.795 7.44129 49.5734 7.24811 49.2855 7.10795C49.0014 6.9678 48.6624 6.89773 48.2685 6.89773H46.206V9.98864ZM46.206 5.23295H48.0298C48.367 5.23295 48.6662 5.17424 48.9276 5.05682C49.1927 4.93561 49.401 4.76515 49.5526 4.54545C49.7079 4.32576 49.7855 4.0625 49.7855 3.75568C49.7855 3.33523 49.6359 2.99621 49.3366 2.73864C49.0412 2.48106 48.6207 2.35227 48.0753 2.35227H46.206V5.23295ZM55.7727 15.2727C55.4659 15.2727 55.178 15.2481 54.9091 15.1989C54.6439 15.1534 54.4242 15.0947 54.25 15.0227L54.7955 13.2159C55.0795 13.303 55.3352 13.3504 55.5625 13.358C55.7936 13.3655 55.9924 13.3125 56.1591 13.1989C56.3295 13.0852 56.4678 12.892 56.5739 12.6193L56.7159 12.25L53.5852 3.27273H56.1307L57.9375 9.68182H58.0284L59.8523 3.27273H62.4148L59.0227 12.9432C58.8598 13.4129 58.6383 13.822 58.358 14.1705C58.0814 14.5227 57.7311 14.7936 57.3068 14.983C56.8826 15.1761 56.3712 15.2727 55.7727 15.2727ZM68.2955 3.27273V5.09091H63.0398V3.27273H68.2955ZM64.233 1.18182H66.6534V9.31818C66.6534 9.54167 66.6875 9.71591 66.7557 9.84091C66.8239 9.96212 66.9186 10.0473 67.0398 10.0966C67.1648 10.1458 67.3087 10.1705 67.4716 10.1705C67.5852 10.1705 67.6989 10.161 67.8125 10.142C67.9261 10.1193 68.0133 10.1023 68.0739 10.0909L68.4545 11.892C68.3333 11.9299 68.1629 11.9735 67.9432 12.0227C67.7235 12.0758 67.4564 12.108 67.142 12.1193C66.5587 12.142 66.0473 12.0644 65.608 11.8864C65.1723 11.7083 64.8333 11.4318 64.5909 11.0568C64.3485 10.6818 64.2292 10.2083 64.233 9.63636V1.18182ZM73.7557 12.1705C72.858 12.1705 72.0852 11.9886 71.4375 11.625C70.7936 11.2576 70.2973 10.7386 69.9489 10.0682C69.6004 9.39394 69.4261 8.59659 69.4261 7.67614C69.4261 6.77841 69.6004 5.99053 69.9489 5.3125C70.2973 4.63447 70.7879 4.10606 71.4205 3.72727C72.0568 3.34848 72.803 3.15909 73.6591 3.15909C74.2348 3.15909 74.7708 3.25189 75.267 3.4375C75.767 3.61932 76.2027 3.89394 76.5739 4.26136C76.9489 4.62879 77.2405 5.09091 77.4489 5.64773C77.6572 6.20076 77.7614 6.84848 77.7614 7.59091V8.25568H70.392V6.75568H75.483C75.483 6.4072 75.4072 6.09848 75.2557 5.82955C75.1042 5.56061 74.8939 5.35038 74.625 5.19886C74.3598 5.04356 74.0511 4.96591 73.6989 4.96591C73.3314 4.96591 73.0057 5.05114 72.7216 5.22159C72.4413 5.38826 72.2216 5.61364 72.0625 5.89773C71.9034 6.17803 71.822 6.49053 71.8182 6.83523V8.26136C71.8182 8.69318 71.8977 9.06629 72.0568 9.38068C72.2197 9.69508 72.4489 9.9375 72.7443 10.108C73.0398 10.2784 73.3902 10.3636 73.7955 10.3636C74.0644 10.3636 74.3106 10.3258 74.5341 10.25C74.7576 10.1742 74.9489 10.0606 75.108 9.90909C75.267 9.75758 75.3883 9.57197 75.4716 9.35227L77.7102 9.5C77.5966 10.0379 77.3636 10.5076 77.0114 10.9091C76.6629 11.3068 76.2121 11.6174 75.6591 11.8409C75.1098 12.0606 74.4754 12.1705 73.7557 12.1705Z"
    fill="black" />
</svg>
